<svg width="92" height="35" viewBox="0 0 92 35" fill="none" xmlns="http://www.w3.org/2000/svg">
<path d="M72.0442 18.7153C71.6047 20.3449 71.1651 21.9834 70.7256 23.6307C70.286 25.278 69.8503 26.9165 69.4184 28.5462C68.9789 30.1758 68.5393 31.8215 68.0997 33.4832H85.6299L89.5662 18.7153H72.0442ZM89.792 7.01787C88.6613 4.85824 86.6662 3.14689 83.8069 1.8838C80.9475 0.620704 77.0651 -0.00697785 72.1596 0.000750857C69.9656 -0.0111774 67.774 0.146623 65.6041 0.472754C63.6879 0.757875 61.8015 1.21798 59.9684 1.84736C58.3316 2.40571 56.7509 3.11827 55.2476 3.97552C53.8762 4.76029 52.5863 5.68071 51.397 6.72307C51.2871 6.82244 51.1772 6.92346 51.0673 7.02615C51.0904 7.07914 51.1135 7.13545 51.1349 7.19176C51.5519 8.23191 51.8334 9.32186 51.9723 10.4345C52.0447 10.9755 52.0865 11.5201 52.0976 12.0658C52.1234 13.8306 51.9015 15.5902 51.4382 17.2926C51.1342 18.4262 50.7412 19.5338 50.2629 20.6049C49.7661 21.7196 49.1887 22.7962 48.5355 23.8261C48.4069 24.0282 48.2739 24.2291 48.1366 24.429C47.2811 25.6922 46.3038 26.8677 45.219 27.9384C45.5112 28.5322 45.8606 29.0958 46.2624 29.621C47.0858 30.6859 48.1019 31.585 49.2575 32.2709C50.5931 33.049 52.0379 33.6202 53.5432 33.9651C55.3813 34.386 57.2624 34.5872 59.1476 34.5646C60.1135 34.5646 60.9607 34.5299 61.6761 34.4603C62.3915 34.3907 63.1497 34.2781 63.9294 34.1291C64.8206 32.4398 65.725 30.7284 66.6426 28.995C67.5602 27.2616 68.4684 25.5364 69.3673 23.8195C70.2651 22.106 71.1574 20.4045 72.0442 18.7153C71.5031 19.3518 70.8043 19.8334 70.0184 20.1114C69.158 20.4426 68.0256 20.6082 66.6212 20.6082C65.8513 20.6269 65.0833 20.5246 64.3448 20.3052C63.8201 20.1535 63.341 19.8735 62.9503 19.4903C62.6459 19.1767 62.4361 18.7827 62.3454 18.3542C62.2651 17.9187 62.286 17.4704 62.4063 17.0442C62.589 16.3871 62.9138 15.7787 63.3574 15.2622C63.9 14.6488 64.5772 14.1708 65.3355 13.8661C66.1904 13.4951 67.2662 13.3101 68.5629 13.3112C69.9426 13.3112 70.9827 13.5365 71.6849 13.9936C72.0155 14.1911 72.2934 14.4665 72.4944 14.796C72.6954 15.1255 72.8136 15.4992 72.8387 15.8849C72.9014 16.6843 72.636 17.6283 72.0426 18.7169L91.0646 14.3381C91.3514 11.6187 90.9272 9.17859 89.792 7.01787Z" fill="white"/>
<path d="M49.3664 16.9914C48.7647 19.1945 47.8314 21.2922 46.5989 23.2119C46.4769 23.4041 46.3533 23.5929 46.2214 23.785C45.4914 24.8624 44.6679 25.8727 43.7604 26.8041C43.6186 26.9532 43.4703 27.1006 43.3219 27.2447C43.1736 27.3888 43.0302 27.5279 42.8818 27.6637C42.5082 28.0115 42.1236 28.3488 41.728 28.6756C39.6412 30.3546 37.2842 31.663 34.7588 32.5444C32.1066 33.5 29.0621 33.9852 25.7077 33.9852H0L7.9879 4.03536C8.29779 2.87495 8.60549 1.71896 8.91098 0.567383H34.917C37.6219 0.567383 39.9642 0.875427 41.8813 1.48323C43.7703 2.08607 45.328 2.92077 46.5082 3.96746C47.4044 4.75597 48.1506 5.70153 48.7104 6.75808C48.8027 6.93529 48.8901 7.11415 48.9692 7.29798C49.017 7.40067 49.0598 7.50335 49.101 7.60768C49.1423 7.71202 49.1686 7.7733 49.2016 7.86439C49.5302 8.73913 49.7553 9.64963 49.8725 10.5772C49.9403 11.0757 49.9789 11.5778 49.9879 12.081C50.0114 13.739 49.8022 15.3921 49.3664 16.9914Z" fill="white"/>
<path d="M31.0913 16.6085L36.2985 6.83716L27.5128 14.1242L23.4677 9.89773L14.3903 26.9296L23.1776 19.6425L27.221 23.869L29.4908 19.6094L27.7221 21.2854L25.182 18.7151L29.3029 14.8033L31.0913 16.6085ZM23.3721 16.9513L22.088 15.6611L23.8073 14.0298L25.0864 15.3216L23.3721 16.9513Z" fill="url(#paint0_linear_349_120)"/>
<defs>
<linearGradient id="paint0_linear_349_120" x1="25.3444" y1="6.83716" x2="25.3444" y2="26.9296" gradientUnits="userSpaceOnUse">
<stop stop-color="#006DE1"/>
<stop offset="1" stop-color="#4F20D2"/>
</linearGradient>
</defs>
</svg>
