<svg width="15" height="16" viewBox="0 0 15 16" fill="none" xmlns="http://www.w3.org/2000/svg">
<path d="M13.2305 8.78401C13.2614 8.52801 13.2845 8.27201 13.2845 8.00001C13.2845 7.72801 13.2614 7.47201 13.2305 7.21601L14.8574 5.89601C15.0039 5.77601 15.0425 5.56001 14.9499 5.38401L13.4079 2.61602C13.3624 2.53348 13.2901 2.47043 13.2039 2.43818C13.1177 2.40593 13.0233 2.40658 12.9375 2.44002L11.0176 3.24002C10.6167 2.92002 10.1849 2.65602 9.71459 2.45602L9.42159 0.33602C9.40852 0.242036 9.36302 0.156169 9.29353 0.0943713C9.22404 0.0325738 9.1353 -0.000952621 9.04378 2.06085e-05H5.95962C5.76686 2.06085e-05 5.60494 0.14402 5.58181 0.33602L5.28882 2.45602C4.81848 2.65602 4.3867 2.92802 3.98576 3.24002L2.06587 2.44002C2.02106 2.42472 1.97426 2.41663 1.92708 2.41602C1.79601 2.41602 1.66493 2.48802 1.59554 2.61602L0.0534574 5.38401C-0.0467778 5.56001 -0.000515288 5.77601 0.145982 5.89601L1.77288 7.21601C1.74204 7.47201 1.7189 7.73601 1.7189 8.00001C1.7189 8.26401 1.74204 8.52801 1.77288 8.78401L0.145982 10.104C-0.000515288 10.224 -0.0390674 10.44 0.0534574 10.616L1.59554 13.384C1.64099 13.4665 1.71329 13.5296 1.79948 13.5618C1.88566 13.5941 1.9801 13.5934 2.06587 13.56L3.98576 12.76C4.3867 13.08 4.81848 13.344 5.28882 13.544L5.58181 15.664C5.60494 15.856 5.76686 16 5.95962 16H9.04378C9.23654 16 9.39846 15.856 9.42159 15.664L9.71459 13.544C10.1849 13.344 10.6167 13.072 11.0176 12.76L12.9375 13.56C12.9838 13.576 13.0301 13.584 13.0763 13.584C13.2074 13.584 13.3385 13.512 13.4079 13.384L14.9499 10.616C15.0425 10.44 15.0039 10.224 14.8574 10.104L13.2305 8.78401ZM11.7039 7.41601C11.7347 7.66401 11.7424 7.83201 11.7424 8.00001C11.7424 8.16801 11.727 8.34401 11.7039 8.58401L11.5959 9.48801L12.2822 10.048L13.1149 10.72L12.5751 11.688L11.5959 11.28L10.794 10.944L10.1001 11.488C9.76856 11.744 9.45243 11.936 9.13631 12.072L8.31901 12.416L8.19564 13.32L8.04143 14.4H6.96198L6.81548 13.32L6.69211 12.416L5.87481 12.072C5.54326 11.928 5.23485 11.744 4.92643 11.504L4.22478 10.944L3.40748 11.288L2.42826 11.696L1.88853 10.728L2.72126 10.056L3.40748 9.49601L3.29954 8.59201C3.2764 8.34401 3.26098 8.16001 3.26098 8.00001C3.26098 7.84001 3.2764 7.65601 3.29954 7.41601L3.40748 6.51201L2.72126 5.95201L1.88853 5.28001L2.42826 4.31201L3.40748 4.72001L4.20936 5.05601L4.9033 4.51201C5.23485 4.25601 5.55097 4.06402 5.8671 3.92802L6.6844 3.58402L6.80777 2.68002L6.96198 1.60002H8.03372L8.18022 2.68002L8.30358 3.58402L9.12089 3.92802C9.45243 4.07202 9.76085 4.25601 10.0693 4.49601L10.7709 5.05601L11.5882 4.71201L12.5674 4.30401L13.1072 5.27201L12.2822 5.95201L11.5959 6.51201L11.7039 7.41601ZM7.5017 4.80001C5.7977 4.80001 4.41754 6.23201 4.41754 8.00001C4.41754 9.76801 5.7977 11.2 7.5017 11.2C9.2057 11.2 10.5859 9.76801 10.5859 8.00001C10.5859 6.23201 9.2057 4.80001 7.5017 4.80001ZM7.5017 9.60001C6.65356 9.60001 5.95962 8.88001 5.95962 8.00001C5.95962 7.12001 6.65356 6.40001 7.5017 6.40001C8.34985 6.40001 9.04378 7.12001 9.04378 8.00001C9.04378 8.88001 8.34985 9.60001 7.5017 9.60001Z" fill="white"/>
</svg>
