<svg width="16" height="16" viewBox="0 0 16 16" fill="none" xmlns="http://www.w3.org/2000/svg">
<path d="M6.04992 9.50004L7.99992 8.31671L9.94992 9.50004L9.43325 7.28337L11.1666 5.78337L8.88325 5.60004L7.99992 3.50004L7.11659 5.60004L4.83325 5.78337L6.56659 7.28337L6.04992 9.50004ZM1.33325 14.6667V2.66671C1.33325 2.30004 1.46392 1.98626 1.72525 1.72537C1.98659 1.46449 2.30036 1.33382 2.66659 1.33337H13.3333C13.6999 1.33337 14.0139 1.46404 14.2753 1.72537C14.5366 1.98671 14.667 2.30049 14.6666 2.66671V10.6667C14.6666 11.0334 14.5361 11.3474 14.2753 11.6087C14.0144 11.87 13.7004 12.0005 13.3333 12H3.99992L1.33325 14.6667ZM3.43325 10.6667H13.3333V2.66671H2.66659V11.4167L3.43325 10.6667Z" fill="white"/>
<path d="M2.66659 2.66671H13.3333V10.6667H3.43325L2.66659 11.4167V2.66671ZM2.66659 2.66671V10.6667M6.04992 9.50004L7.99992 8.31671L9.94992 9.50004L9.43325 7.28337L11.1666 5.78337L8.88325 5.60004L7.99992 3.50004L7.11659 5.60004L4.83325 5.78337L6.56659 7.28337L6.04992 9.50004ZM1.33325 14.6667V2.66671C1.33325 2.30004 1.46392 1.98626 1.72525 1.72537C1.98659 1.46449 2.30036 1.33382 2.66659 1.33337H13.3333C13.6999 1.33337 14.0139 1.46404 14.2753 1.72537C14.5366 1.98671 14.667 2.30049 14.6666 2.66671V10.6667C14.6666 11.0334 14.5361 11.3474 14.2753 11.6087C14.0144 11.87 13.7004 12.0005 13.3333 12H3.99992L1.33325 14.6667Z" stroke="white" stroke-width="0.3"/>
</svg>
