<svg width="16" height="16" viewBox="0 0 16 16" fill="none" xmlns="http://www.w3.org/2000/svg">
<g clip-path="url(#clip0_278_35)">
<path d="M3.00008 11C2.00008 11.84 1.66675 14.3333 1.66675 14.3333C1.66675 14.3333 4.16008 14 5.00008 13C5.47341 12.44 5.46675 11.58 4.94008 11.06C4.68095 10.8126 4.33961 10.6697 3.98157 10.6586C3.62352 10.6476 3.274 10.7691 3.00008 11ZM8.00008 9.99996L6.00008 7.99996C6.35484 7.07958 6.80155 6.19734 7.33341 5.36663C8.1102 4.12462 9.19183 3.10199 10.4754 2.39602C11.759 1.69005 13.2019 1.32421 14.6667 1.3333C14.6667 3.14663 14.1467 6.33329 10.6667 8.66663C9.82456 9.19891 8.93122 9.64558 8.00008 9.99996Z" stroke="#006DE1" stroke-width="1.7" stroke-linecap="round" stroke-linejoin="round"/>
<path d="M6.00008 7.99997H2.66675C2.66675 7.99997 3.03341 5.97997 4.00008 5.33331C5.08008 4.61331 7.33341 5.33331 7.33341 5.33331M8.00008 9.99997V13.3333C8.00008 13.3333 10.0201 12.9666 10.6667 12C11.3867 10.92 10.6667 8.66664 10.6667 8.66664" stroke="#006DE1" stroke-width="1.7" stroke-linecap="round" stroke-linejoin="round"/>
</g>
<defs>
<clipPath id="clip0_278_35">
<rect width="16" height="16" fill="white"/>
</clipPath>
</defs>
</svg>
