<svg width="564" height="220" viewBox="0 0 564 220" fill="none" xmlns="http://www.w3.org/2000/svg">
<rect x="563.5" y="219.5" width="563" height="219" rx="31.5" transform="rotate(180 563.5 219.5)" fill="#F3F3F3"/>
<rect x="563.5" y="219.5" width="563" height="219" rx="31.5" transform="rotate(180 563.5 219.5)" stroke="#F3F3F3"/>
<path d="M487.9 181.875C490.459 182.903 493.237 183.516 496.169 183.625C500.128 183.756 503.869 182.947 507.237 181.394C503.212 179.819 499.559 177.5 496.453 174.613C494.424 177.853 491.445 180.389 487.922 181.875H487.9Z" fill="#FF9100"/>
<path d="M496.431 174.613C489.322 168.05 485.012 158.534 485.384 148.1C485.384 147.772 485.406 147.422 485.428 147.094C482.273 146.289 478.961 146.326 475.825 147.203C473.922 150.528 472.784 154.334 472.631 158.425C472.259 168.969 478.647 178.178 487.9 181.897C491.433 180.427 494.416 177.887 496.431 174.634V174.613Z" fill="#FFC400"/>
<path d="M496.431 174.612C498.137 171.882 499.095 168.751 499.209 165.534C499.516 156.741 493.609 149.194 485.428 147.072C485.428 147.4 485.384 147.75 485.384 148.078C485.201 153.033 486.094 157.969 488.001 162.545C489.908 167.122 492.784 171.232 496.431 174.591V174.612Z" fill="#FF9100"/>
<path d="M498.291 122.375C493.631 126.094 489.956 131.016 487.725 136.681C486.421 140.003 485.646 143.51 485.428 147.072C489.484 148.12 493.061 150.522 495.567 153.879C498.073 157.236 499.358 161.348 499.209 165.534C499.108 168.754 498.149 171.888 496.431 174.612C499.575 177.522 503.232 179.821 507.216 181.394C515.309 177.653 521.041 169.625 521.369 160.109C521.588 153.941 519.225 148.45 515.878 143.812C512.334 138.912 498.291 122.397 498.291 122.397V122.375Z" fill="#DD2C00"/>
<g clip-path="url(#clip0_154_1723)">
<path d="M429.594 118H392.406C383.345 118 376 125.345 376 134.406V171.594C376 180.655 383.345 188 392.406 188H429.594C438.655 188 446 180.655 446 171.594V134.406C446 125.345 438.655 118 429.594 118Z" fill="#023430"/>
<path d="M422.805 147.419C419.924 134.71 413.919 131.326 412.387 128.934C411.755 127.881 411.196 126.786 410.713 125.656C410.632 126.786 410.483 127.496 409.523 128.353C407.596 130.071 399.412 136.74 398.723 151.181C398.082 164.646 408.622 172.948 410.014 173.806C411.085 174.333 412.389 173.818 413.025 173.334C418.106 169.847 425.048 160.551 422.811 147.419" fill="#10AA50"/>
<path d="M411.149 166.637C410.884 169.969 410.694 171.906 410.02 173.81C410.02 173.81 410.462 176.983 410.773 180.344H411.872C412.134 177.977 412.534 175.628 413.07 173.308C411.648 172.608 411.204 169.561 411.149 166.637Z" fill="#B8C4C2"/>
<path d="M413.069 173.31C411.631 172.646 411.215 169.535 411.151 166.637C411.506 161.856 411.61 157.06 411.462 152.269C411.386 149.755 411.497 128.984 410.842 125.942C411.29 126.973 411.806 127.972 412.387 128.933C413.919 131.326 419.926 134.71 422.805 147.42C425.048 160.528 418.144 169.8 413.069 173.31Z" fill="#12924F"/>
</g>
<g clip-path="url(#clip1_154_1723)">
<path d="M343.594 118H306.406C297.345 118 290 125.345 290 134.406V171.594C290 180.655 297.345 188 306.406 188H343.594C352.655 188 360 180.655 360 171.594V134.406C360 125.345 352.655 118 343.594 118Z" fill="#242938"/>
<path d="M352.344 168.022C351.548 168.324 350.669 168.323 349.873 168.02C349.078 167.718 348.42 167.134 348.026 166.38C345.548 162.67 342.811 159.128 340.181 155.509L339.04 153.989C335.909 158.185 332.777 162.214 329.918 166.395C329.546 167.116 328.924 167.677 328.169 167.974C327.414 168.27 326.577 168.282 325.813 168.007L337.566 152.241L326.634 137.995C327.421 137.711 328.282 137.707 329.071 137.984C329.861 138.261 330.531 138.802 330.968 139.515C333.506 143.225 336.319 146.767 339.116 150.523C341.929 146.798 344.712 143.24 347.311 139.561C347.686 138.851 348.308 138.305 349.059 138.024C349.81 137.744 350.639 137.75 351.386 138.04L347.144 143.666C345.244 146.174 343.374 148.698 341.397 151.146C341.238 151.289 341.111 151.463 341.023 151.658C340.936 151.853 340.891 152.065 340.891 152.279C340.891 152.492 340.936 152.704 341.023 152.899C341.111 153.094 341.238 153.269 341.397 153.411C345.031 158.231 348.634 163.066 352.344 168.022ZM297.656 152.043C297.976 150.523 298.173 148.865 298.614 147.315C301.244 137.965 311.963 134.072 319.337 139.865C323.654 143.256 324.734 148.06 324.521 153.472H300.195C299.8 163.142 306.778 168.98 315.703 166C317.151 165.482 318.447 164.612 319.474 163.468C320.501 162.324 321.227 160.942 321.587 159.447C322.058 157.927 322.818 157.669 324.263 158.109C324.025 159.96 323.37 161.733 322.348 163.295C321.327 164.856 319.964 166.166 318.364 167.125C315.719 168.572 312.684 169.145 309.694 168.762C306.704 168.38 303.911 167.062 301.716 164.997C299.543 162.554 298.23 159.468 297.976 156.209C297.976 155.692 297.778 155.175 297.672 154.689C297.662 153.807 297.656 152.925 297.656 152.043ZM300.226 151.389H322.225C322.088 144.381 317.664 139.409 311.765 139.364C305.197 139.272 300.499 144.137 300.21 151.359L300.226 151.389Z" fill="white"/>
</g>
<g clip-path="url(#clip2_154_1723)">
<path d="M251.566 118C248.027 118 243.394 120.53 238.71 124.917C234.026 120.556 229.394 118.051 225.855 118.051V118.064C224.774 118.064 223.796 118.297 222.946 118.788C219.33 120.878 218.52 127.395 220.386 135.576C212.382 138.053 207.17 142.015 207.17 146.196C207.17 150.391 212.407 154.364 220.437 156.829C218.584 165.036 219.408 171.565 223.037 173.656C223.873 174.146 224.851 174.379 225.932 174.379C229.471 174.379 234.104 171.849 238.788 167.462C243.472 171.823 248.105 174.328 251.643 174.328C252.723 174.328 253.702 174.096 254.551 173.605C258.167 171.514 258.978 164.997 257.112 156.816C265.09 154.352 270.302 150.378 270.302 146.196C270.302 142.003 265.065 138.028 257.035 135.563C258.888 127.356 258.064 120.827 254.435 118.737C253.602 118.248 252.628 118.016 251.566 118.014V118ZM251.553 120.879V120.89C252.145 120.89 252.622 121.007 253.02 121.226C254.77 122.232 255.53 126.066 254.938 130.995C254.796 132.208 254.565 133.485 254.281 134.789C251.759 134.169 249.005 133.692 246.11 133.382C244.373 130.995 242.57 128.826 240.757 126.929C244.945 123.027 248.876 120.886 251.553 120.879ZM225.855 120.929C228.519 120.929 232.469 123.058 236.664 126.942C234.747 128.965 232.972 131.116 231.349 133.382C228.441 133.692 225.689 134.169 223.166 134.802C222.882 133.566 222.658 132.317 222.496 131.059C221.891 126.129 222.637 122.298 224.375 121.278C224.76 121.046 225.264 120.943 225.855 120.943V120.929ZM238.698 128.968C239.96 130.282 241.154 131.661 242.275 133.098C241.096 133.042 239.916 133.012 238.736 133.008C237.526 133.008 236.33 133.034 235.159 133.098C236.263 131.659 237.444 130.28 238.697 128.969L238.698 128.968ZM238.736 135.899C240.679 135.899 242.623 135.989 244.527 136.144C245.631 137.736 246.67 139.372 247.641 141.048C248.607 142.72 249.5 144.434 250.318 146.183C249.499 147.934 248.611 149.652 247.654 151.331C246.651 153.073 245.62 154.726 244.553 156.262C242.635 156.429 240.692 156.519 238.736 156.519C236.792 156.519 234.85 156.429 232.946 156.275C231.841 154.684 230.802 153.048 229.832 151.371C228.866 149.699 227.973 147.985 227.154 146.235C227.968 144.481 228.857 142.763 229.819 141.086C230.822 139.345 231.851 137.692 232.919 136.157C234.854 135.986 236.794 135.9 238.736 135.899ZM229.174 136.569C228.543 137.563 227.914 138.582 227.322 139.627C226.74 140.646 226.182 141.679 225.649 142.725C224.973 141.043 224.381 139.33 223.873 137.59C225.558 137.189 227.334 136.84 229.174 136.569ZM248.272 136.569C250.099 136.84 251.862 137.176 253.548 137.59C253.071 139.254 252.479 140.969 251.81 142.686C251.278 141.638 250.716 140.605 250.124 139.589C249.532 138.556 248.902 137.55 248.272 136.569ZM256.327 138.351C257.552 138.732 258.759 139.171 259.944 139.667C264.499 141.615 267.445 144.17 267.445 146.196C267.432 148.222 264.485 150.79 259.93 152.726C258.823 153.203 257.614 153.629 256.366 154.029C255.633 151.5 254.667 148.867 253.47 146.171C254.654 143.487 255.606 140.868 256.326 138.35L256.327 138.351ZM221.093 138.364C221.826 140.893 222.792 143.525 223.989 146.222C222.805 148.906 221.853 151.526 221.132 154.042C219.91 153.662 218.708 153.223 217.529 152.725C212.974 150.777 210.026 148.222 210.026 146.196C210.026 144.17 212.974 141.602 217.529 139.666C218.636 139.189 219.845 138.764 221.093 138.364ZM238.723 140.299C235.475 140.299 232.842 142.939 232.842 146.196C232.842 149.454 235.475 152.093 238.723 152.093C241.971 152.093 244.603 149.454 244.603 146.196C244.603 142.939 241.971 140.299 238.723 140.299ZM251.81 149.655C252.486 151.336 253.078 153.05 253.586 154.79C251.836 155.217 250.067 155.562 248.285 155.824C248.928 154.819 249.545 153.799 250.137 152.764C250.72 151.741 251.278 150.705 251.81 149.655ZM225.649 149.706C226.181 150.755 226.743 151.788 227.334 152.804C227.932 153.823 228.55 154.829 229.189 155.822C227.362 155.552 225.597 155.215 223.911 154.802C224.387 153.138 224.98 151.423 225.649 149.706ZM254.307 157.577C254.603 158.881 254.834 160.133 254.976 161.333C255.58 166.262 254.834 170.094 253.097 171.114C252.711 171.346 252.21 171.45 251.618 171.45C248.954 171.45 245.003 169.321 240.807 165.436C242.725 163.415 244.501 161.263 246.123 158.997C249.031 158.688 251.785 158.21 254.307 157.577ZM223.191 157.603C225.714 158.223 228.467 158.7 231.362 159.01C233.099 161.397 234.901 163.565 236.716 165.463C232.52 169.373 228.583 171.514 225.907 171.514C225.328 171.501 224.838 171.385 224.452 171.166C222.702 170.16 221.944 166.327 222.535 161.397C222.677 160.184 222.908 158.907 223.191 157.603ZM235.185 159.294C236.343 159.345 237.526 159.384 238.723 159.384C239.933 159.384 241.13 159.359 242.3 159.294C241.196 160.733 240.014 162.112 238.761 163.423C237.565 162.184 236.369 160.803 235.185 159.294ZM258.302 179.484C258.098 179.484 257.943 179.543 257.837 179.661C257.735 179.779 257.684 179.923 257.684 180.093C257.684 180.264 257.735 180.406 257.836 180.52C257.943 180.633 258.098 180.69 258.303 180.69C258.61 180.691 258.662 180.633 258.768 180.52C258.874 180.404 258.931 180.251 258.926 180.093C258.926 179.923 258.873 179.779 258.768 179.661C258.662 179.543 258.506 179.484 258.302 179.484ZM207 179.598V187.885H208.095V184.533H210.037L211.831 187.885H213V187.817L211.058 184.3C211.554 184.11 211.94 183.823 212.216 183.44C212.496 183.057 212.636 182.607 212.636 182.091C212.637 181.279 212.385 180.66 211.881 180.235C211.382 179.81 210.667 179.598 209.735 179.598L207 179.598ZM239.428 179.598V187.885H240.524V181.499L244.685 187.885H245.781V179.598H244.696V186.013L240.524 179.598H239.428ZM232.952 180.235V181.727H231.834V182.541H232.952V186.36C232.952 186.884 233.071 187.288 233.309 187.572C233.548 187.857 233.902 187.999 234.371 187.999C234.633 187.999 234.902 187.961 235.177 187.885V187.032C234.965 187.078 234.799 187.1 234.678 187.1C234.432 187.1 234.258 187.04 234.156 186.918C234.054 186.792 234.003 186.606 234.003 186.36V182.541H235.148V181.727H234.003V180.235H232.952ZM254.25 180.235V181.727H253.131V182.541H254.249V186.36C254.249 186.884 254.369 187.288 254.607 187.572C254.845 187.857 255.199 187.999 255.668 187.999C255.929 187.999 256.198 187.961 256.474 187.885V187.032C256.262 187.078 256.095 187.1 255.975 187.1C255.729 187.1 255.555 187.04 255.453 186.918C255.351 186.792 255.3 186.606 255.299 186.36V182.541H256.445V181.727H255.299V180.235H254.25ZM208.095 180.498H209.764C210.339 180.501 210.778 180.64 211.081 180.914C211.387 181.186 211.541 181.578 211.541 182.091C211.541 182.561 211.38 182.937 211.058 183.218C210.741 183.499 210.311 183.639 209.769 183.64H208.095V180.498ZM216.423 181.612C215.934 181.612 215.48 181.749 215.06 182.023C214.644 182.292 214.319 182.668 214.084 183.15C213.852 183.628 213.737 184.173 213.737 184.783V184.977C213.737 185.895 213.998 186.629 214.521 187.179C215.043 187.726 215.721 187.999 216.553 187.999C217.582 187.999 218.354 187.603 218.869 186.809L218.228 186.309C218.042 186.551 217.813 186.756 217.551 186.912C217.294 187.064 216.98 187.14 216.61 187.14C216.088 187.14 215.656 186.954 215.315 186.582C214.979 186.206 214.803 185.715 214.788 185.108H218.948V184.669C218.948 183.686 218.727 182.931 218.284 182.404C217.842 181.876 217.221 181.612 216.423 181.612ZM222.559 181.612C222.135 181.608 221.716 181.694 221.327 181.864C220.956 182.03 220.661 182.258 220.441 182.546C220.226 182.831 220.118 183.127 220.117 183.435H221.174C221.174 183.165 221.301 182.935 221.554 182.746C221.808 182.556 222.121 182.461 222.496 182.461C222.924 182.461 223.248 182.571 223.467 182.792C223.687 183.007 223.796 183.299 223.796 183.667V184.151H222.774C221.892 184.151 221.207 184.33 220.719 184.686C220.235 185.04 219.992 185.537 219.992 186.178C219.992 186.706 220.186 187.142 220.572 187.487C220.962 187.829 221.459 187.999 222.064 187.999C222.742 187.999 223.325 187.745 223.813 187.237C223.851 187.548 223.9 187.764 223.96 187.885H225.062V187.794C224.918 187.461 224.847 187.011 224.847 186.445V183.611C224.831 182.988 224.623 182.501 224.221 182.148C223.82 181.791 223.266 181.612 222.559 181.612ZM228.949 181.612C228.39 181.612 227.904 181.742 227.491 182.001C227.082 182.258 226.768 182.62 226.549 183.087C226.329 183.554 226.219 184.087 226.219 184.686V184.863C226.219 185.835 226.465 186.601 226.958 187.163C227.454 187.721 228.12 188 228.956 188C229.372 188 229.765 187.905 230.136 187.715C230.493 187.539 230.802 187.277 231.033 186.952C231.257 186.633 231.378 186.297 231.397 185.944H230.403C230.373 186.286 230.218 186.57 229.938 186.798C229.661 187.025 229.314 187.146 228.956 187.14C228.415 187.14 227.998 186.948 227.706 186.566C227.416 186.182 227.27 185.635 227.27 184.925V184.727C227.27 183.998 227.416 183.442 227.706 183.059C228.002 182.672 228.416 182.479 228.95 182.479C229.347 182.479 229.68 182.608 229.948 182.865C230.222 183.12 230.373 183.446 230.403 183.844H231.397C231.366 183.184 231.122 182.648 230.664 182.234C230.21 181.82 229.638 181.613 228.949 181.612ZM249.941 181.612C249.517 181.608 249.098 181.694 248.71 181.864C248.339 182.03 248.043 182.258 247.824 182.546C247.608 182.831 247.501 183.127 247.501 183.435H248.556C248.556 183.165 248.683 182.935 248.937 182.746C249.19 182.556 249.504 182.461 249.878 182.461C250.306 182.461 250.63 182.571 250.85 182.792C251.069 183.007 251.179 183.299 251.179 183.667V184.151H250.157C249.275 184.151 248.59 184.33 248.101 184.686C247.617 185.04 247.375 185.537 247.375 186.178C247.375 186.706 247.568 187.142 247.955 187.487C248.344 187.829 248.841 187.999 249.447 187.999C250.124 187.999 250.707 187.745 251.196 187.237C251.233 187.548 251.282 187.764 251.343 187.885H252.444V187.794C252.301 187.461 252.229 187.011 252.229 186.445V183.611C252.213 182.988 252.005 182.501 251.604 182.148C251.203 181.791 250.649 181.612 249.941 181.612ZM268.474 181.612C267.99 181.611 267.516 181.754 267.112 182.023C266.696 182.292 266.37 182.668 266.135 183.15C265.905 183.628 265.789 184.173 265.789 184.783V184.977C265.789 185.895 266.051 186.629 266.573 187.179C267.095 187.726 267.772 187.999 268.604 187.999C269.634 187.999 270.406 187.603 270.921 186.809L270.28 186.309C270.094 186.551 269.865 186.756 269.603 186.912C269.346 187.064 269.033 187.14 268.662 187.14C268.139 187.14 267.708 186.954 267.368 186.582C267.031 186.206 266.855 185.715 266.839 185.108H271V184.669C271 183.686 270.779 182.931 270.336 182.404C269.894 181.877 269.273 181.613 268.474 181.612ZM257.769 181.727V187.885H258.819V181.727H257.769ZM259.898 181.727L262.122 187.885H262.923L265.125 181.727H264.051L262.531 186.457L260.971 181.727L259.898 181.727ZM216.423 182.479C216.861 182.479 217.209 182.626 217.467 182.922C217.724 183.214 217.868 183.628 217.898 184.163V184.243H214.821C214.889 183.685 215.068 183.252 215.356 182.944C215.49 182.794 215.655 182.675 215.839 182.595C216.023 182.515 216.222 182.475 216.423 182.479ZM268.474 182.479C268.913 182.479 269.261 182.626 269.518 182.922C269.776 183.214 269.919 183.628 269.949 184.163V184.243H266.873C266.941 183.685 267.119 183.252 267.407 182.944C267.541 182.794 267.706 182.675 267.89 182.595C268.074 182.515 268.274 182.475 268.474 182.479ZM222.973 184.898H223.796V186.161C223.664 186.434 223.45 186.656 223.155 186.827C222.871 186.994 222.547 187.083 222.218 187.083C221.873 187.083 221.592 186.99 221.373 186.804C221.153 186.618 221.043 186.36 221.043 186.03C221.043 185.275 221.686 184.898 222.973 184.898L222.973 184.898ZM250.355 184.898H251.178V186.161C251.046 186.434 250.833 186.656 250.537 186.827C250.253 186.994 249.929 187.083 249.599 187.083C249.256 187.083 248.974 186.99 248.754 186.804C248.535 186.618 248.426 186.36 248.425 186.03C248.425 185.275 249.069 184.898 250.356 184.898L250.355 184.898Z" fill="#61DAFB"/>
</g>
<g clip-path="url(#clip3_154_1723)">
<path d="M171.594 118H134.406C125.345 118 118 125.345 118 134.406V171.594C118 180.655 125.345 188 134.406 188H171.594C180.655 188 188 180.655 188 171.594V134.406C188 125.345 180.655 118 171.594 118Z" fill="#764ABC"/>
<path d="M163.549 163.281C165.567 163.072 167.098 161.332 167.028 159.245C166.959 157.157 165.219 155.487 163.131 155.487H162.992C160.835 155.556 159.165 157.366 159.234 159.523C159.304 160.567 159.721 161.471 160.348 162.098C157.982 166.761 154.363 170.171 148.935 173.024C145.246 174.972 141.419 175.668 137.591 175.181C134.459 174.764 132.024 173.372 130.493 171.075C128.266 167.665 128.057 163.977 129.936 160.289C131.258 157.644 133.346 155.695 134.668 154.721C134.39 153.817 133.972 152.285 133.763 151.172C123.673 158.479 124.716 168.361 127.778 173.024C130.075 176.503 134.738 178.661 139.888 178.661C141.279 178.661 142.671 178.522 144.063 178.174C152.971 176.434 159.721 171.145 163.549 163.281Z" fill="white"/>
<path d="M175.797 154.652C170.508 148.458 162.714 145.048 153.806 145.048H152.693C152.066 143.795 150.744 142.96 149.283 142.96H149.144C146.986 143.03 145.316 144.839 145.385 146.996C145.455 149.084 147.195 150.754 149.283 150.754H149.422C150.953 150.685 152.275 149.711 152.832 148.388H154.085C159.373 148.388 164.384 149.919 168.908 152.912C172.387 155.208 174.893 158.201 176.284 161.819C177.468 164.742 177.398 167.596 176.145 170.031C174.197 173.72 170.926 175.738 166.611 175.738C163.827 175.738 161.183 174.903 159.791 174.276C159.026 174.972 157.634 176.086 156.659 176.782C159.652 178.174 162.714 178.939 165.637 178.939C172.318 178.939 177.259 175.251 179.138 171.562C181.156 167.526 181.017 160.567 175.797 154.652Z" fill="white"/>
<path d="M140.444 164.464C140.514 166.552 142.254 168.222 144.341 168.222H144.481C146.638 168.152 148.308 166.343 148.239 164.186C148.169 162.098 146.429 160.428 144.341 160.428H144.202C144.063 160.428 143.854 160.428 143.715 160.497C140.862 155.765 139.679 150.615 140.096 145.048C140.375 140.873 141.767 137.254 144.202 134.261C146.22 131.686 150.118 130.433 152.762 130.364C160.139 130.225 163.27 139.411 163.479 143.099C164.384 143.308 165.915 143.795 166.959 144.143C166.124 132.87 159.165 127.023 152.484 127.023C146.22 127.023 140.444 131.547 138.148 138.228C134.946 147.136 137.034 155.695 140.931 162.446C140.583 162.933 140.374 163.699 140.444 164.464Z" fill="white"/>
</g>
<g clip-path="url(#clip4_154_1723)">
<path d="M85.5938 118H48.4062C39.3453 118 32 125.345 32 134.406V171.594C32 180.655 39.3453 188 48.4062 188H85.5938C94.6547 188 102 180.655 102 171.594V134.406C102 125.345 94.6547 118 85.5938 118Z" fill="#242938"/>
<path d="M67.0007 158.182C69.8182 158.182 72.1019 155.898 72.1019 153.08C72.1019 150.263 69.8182 147.979 67.0007 147.979C64.1832 147.979 61.8994 150.263 61.8994 153.08C61.8994 155.898 64.1834 158.182 67.0007 158.182Z" fill="#00D8FF"/>
<path d="M67.0005 142.709C73.8496 142.709 80.2122 143.691 85.0097 145.343C90.7899 147.333 94.3437 150.349 94.3437 153.081C94.3437 155.927 90.5774 159.131 84.3701 161.188C79.6774 162.743 73.5021 163.554 67.0005 163.554C60.3347 163.554 54.0224 162.792 49.2766 161.171C43.2725 159.119 39.6562 155.873 39.6562 153.081C39.6562 150.372 43.0496 147.379 48.7486 145.392C53.5638 143.713 60.0834 142.709 66.9995 142.709H67.0005Z" stroke="#00D8FF" stroke-width="3"/>
<path d="M57.9714 147.924C61.3932 141.991 65.4228 136.971 69.2504 133.64C73.8617 129.627 78.2503 128.055 80.6161 129.419C83.0817 130.841 83.9761 135.705 82.6568 142.11C81.6601 146.951 79.2774 152.706 76.0292 158.338C72.699 164.113 68.8859 169.2 65.1106 172.5C60.3333 176.676 55.7147 178.187 53.2961 176.793C50.9492 175.44 50.0518 171.005 51.1778 165.075C52.1291 160.065 54.5165 153.916 57.9703 147.924H57.9714Z" stroke="#00D8FF" stroke-width="3"/>
<path d="M57.9795 158.354C54.5482 152.427 52.2119 146.427 51.2368 141.448C50.063 135.449 50.8929 130.862 53.2567 129.493C55.7201 128.067 60.3803 129.721 65.2699 134.063C68.9668 137.345 72.7629 142.283 76.0204 147.91C79.3602 153.679 81.8632 159.523 82.8369 164.442C84.069 170.667 83.0718 175.422 80.6554 176.821C78.311 178.178 74.0205 176.741 69.4456 172.805C65.5803 169.478 61.4448 164.339 57.9795 158.354Z" stroke="#00D8FF" stroke-width="3"/>
</g>
<path d="M466.375 52.375C466.375 43.5384 473.538 36.375 482.375 36.375H511.625C520.462 36.375 527.625 43.5384 527.625 52.375V81.625C527.625 90.4616 520.462 97.625 511.625 97.625H482.375C473.538 97.625 466.375 90.4616 466.375 81.625V52.375Z" fill="#F5DE19"/>
<path d="M507.52 84.2266C508.042 85.286 508.853 86.1765 509.859 86.7956C510.866 87.4147 512.026 87.7374 513.207 87.7266C515.592 87.7266 517.116 86.5345 517.116 84.8829C517.116 82.9141 515.55 82.2098 512.925 81.0613L511.486 80.4445C507.329 78.6748 504.573 76.4588 504.573 71.7732C504.573 67.4573 507.854 64.1695 513.002 64.1695C514.668 64.0494 516.332 64.4225 517.788 65.2421C519.244 66.0617 520.426 67.2916 521.187 68.7785L516.687 71.6551C516.394 70.9179 515.884 70.2872 515.224 69.8466C514.564 69.4059 513.786 69.1761 512.993 69.1876C512.647 69.1529 512.297 69.1908 511.966 69.2987C511.636 69.4066 511.331 69.5822 511.072 69.8143C510.813 70.0465 510.605 70.33 510.461 70.647C510.318 70.9639 510.242 71.3072 510.239 71.6551C510.239 73.381 511.308 74.081 513.778 75.1551L515.217 75.772C520.109 77.8698 522.874 80.007 522.874 84.8129C522.874 89.9951 518.803 92.8345 513.336 92.8345C511.206 92.9688 509.083 92.4846 507.222 91.4402C505.361 90.3958 503.842 88.8358 502.847 86.9479L507.52 84.2266ZM487.187 84.7254C488.09 86.3288 488.913 87.6851 490.89 87.6851C492.78 87.6851 493.975 86.9457 493.975 84.0691V64.4976H499.73V84.1457C499.73 90.1045 496.23 92.817 491.135 92.817C489.334 92.9154 487.546 92.4666 486.005 91.5296C484.464 90.5925 483.242 89.2111 482.501 87.567L487.187 84.7254Z" fill="black"/>
<g clip-path="url(#clip5_154_1723)">
<path d="M410.97 101.823L391.029 96.215L386.585 45.7219H435.415L430.966 96.2072L410.97 101.823Z" fill="#264DE4"/>
<path d="M427.158 92.9924L430.959 49.8503H411V97.5304L427.158 92.9924Z" fill="#2965F1"/>
<path d="M396.773 68.5777L397.32 74.7705H411V68.5777H396.773ZM395.672 56.0435L396.227 62.2362H411V56.0435H395.672ZM411 84.661L410.973 84.6682L404.165 82.806L403.73 77.867H397.594L398.45 87.5906L410.972 91.1119L411 91.1042V84.661Z" fill="#EBEBEB"/>
<path d="M398.077 32H405.48V35.1366H401.173V38.2732H405.481V41.4097H398.077V32ZM406.961 32H414.365V34.7275H410.058V35.2729H414.365V41.5462H406.962V38.682H411.269V38.1365H406.961L406.961 32ZM415.846 32H423.25V34.7275H418.942V35.2729H423.25V41.5462H415.846V38.682H420.154V38.1365H415.846L415.846 32Z" fill="black"/>
<path d="M425.188 68.5777L426.292 56.0435H410.979V62.2362H419.593L419.036 68.5777H410.979V74.7705H418.506L417.797 82.8021L410.979 84.6663V91.109L423.511 87.5906L423.603 86.5443L425.039 70.2407L425.188 68.5777Z" fill="white"/>
</g>
<g clip-path="url(#clip6_154_1723)">
<path d="M349.415 45.7219L344.966 96.2072L324.97 101.823L305.029 96.215L300.585 45.7219H349.415Z" fill="#E44D26"/>
<path d="M325 97.5304L341.158 92.9924L344.959 49.8503H325V97.5304Z" fill="#F16529"/>
<path d="M316.352 62.2362H325V56.0435H309.672L309.818 57.7048L311.32 74.7705H325V68.5777H316.911L316.352 62.2362ZM317.73 77.867H311.594L312.45 87.5906L324.972 91.1119L325 91.1042V84.661L324.973 84.6682L318.165 82.806L317.73 77.867Z" fill="#EBEBEB"/>
<path d="M305.128 32H308.235V35.1093H311.077V32H314.183V41.4157H311.077V38.2628H308.235V41.4157H305.128L305.128 32ZM318.268 35.1225H315.534V32H324.111V35.1225H321.375V41.4157H318.269V35.1225H318.268ZM325.473 32H328.712L330.704 35.3084L332.695 32H335.936V41.4157H332.842V36.7488L330.704 40.0965H330.651L328.512 36.7488V41.4157H325.473V32ZM337.482 32H340.589V38.3035H344.958V41.4157H337.481L337.482 32Z" fill="black"/>
<path d="M324.979 74.7705H332.506L331.797 82.8021L324.979 84.6663V91.109L337.511 87.5906L337.603 86.5443L339.039 70.2407L339.188 68.5777H324.979V74.7705ZM324.979 62.2211V62.2362H339.745L339.867 60.8444L340.146 57.7048L340.292 56.0435H324.979V62.2211Z" fill="white"/>
</g>
<g clip-path="url(#clip7_154_1723)">
<path d="M262.379 33H215.621C209.203 33 204 38.2517 204 44.73V90.1596C204 96.6379 209.203 101.89 215.621 101.89H262.379C268.797 101.89 274 96.6379 274 90.1596V44.73C274 38.2517 268.797 33 262.379 33Z" fill="#49021F"/>
<path d="M229.421 51.0219V81.2147C229.421 81.5308 229.28 81.6888 228.998 81.6888H223.316C223.066 81.6888 222.94 81.5308 222.941 81.2147V51.0219C222.941 50.7693 223.082 50.6429 223.363 50.6427H229.045C229.093 50.6359 229.142 50.6396 229.188 50.6537C229.234 50.6678 229.277 50.6919 229.313 50.7243C229.349 50.7567 229.378 50.7966 229.397 50.8413C229.416 50.8859 229.425 50.9343 229.424 50.983L229.421 51.0219ZM246.534 82.1597L246.232 82.1627C244.071 82.196 241.929 81.7427 239.963 80.8357C238.132 79.9801 236.601 78.5834 235.573 76.8304C234.534 75.089 234.002 72.9188 233.977 70.3196L233.976 70.1236C233.958 67.9482 234.509 65.8065 235.573 63.9144C236.639 62.0389 238.194 60.4941 240.069 59.4479L240.222 59.364C242.256 58.2265 244.713 57.6578 247.594 57.6578L247.655 57.6581L247.79 57.6611L247.942 57.6672L248.112 57.676L248.3 57.6879L248.506 57.7031L248.97 57.7414L249.097 57.7525V48.4154C249.097 48.1944 249.19 48.0837 249.378 48.0834H255.295C255.333 48.0778 255.372 48.0813 255.409 48.0937C255.446 48.106 255.479 48.1268 255.506 48.1544C255.534 48.182 255.554 48.2156 255.567 48.2526C255.579 48.2896 255.582 48.329 255.577 48.3676V76.3803C255.579 76.9655 255.602 77.5505 255.647 78.134L255.692 78.745L255.731 79.3139L255.765 79.8402C255.77 79.9387 255.747 80.0366 255.696 80.1212C255.646 80.2058 255.572 80.2731 255.483 80.3144C253.957 80.9568 252.367 81.4334 250.74 81.736C249.352 81.9948 247.946 82.1365 246.535 82.1597M249.097 76.2853V63.3456C248.843 63.2762 248.584 63.2286 248.322 63.2035C248.002 63.1708 247.681 63.155 247.359 63.156C246.22 63.1447 245.094 63.4044 244.072 63.9144C243.078 64.4139 242.228 65.1651 241.607 66.0948C240.965 67.0426 240.644 68.2908 240.644 69.8393C240.622 70.8725 240.789 71.9009 241.137 72.8726C241.421 73.6556 241.87 74.3672 242.452 74.9583C243.01 75.5022 243.685 75.9078 244.425 76.1432C245.206 76.3984 246.022 76.5265 246.843 76.5227C247.281 76.5227 247.688 76.5068 248.064 76.4749C248.364 76.4521 248.661 76.4023 248.952 76.3259L249.097 76.2853Z" fill="#FF3366"/>
</g>
<g clip-path="url(#clip8_154_1723)">
<path d="M176.379 33H129.621C123.203 33 118 38.2517 118 44.73V90.1596C118 96.6379 123.203 101.89 129.621 101.89H176.379C182.797 101.89 188 96.6379 188 90.1596V44.73C188 38.2517 182.797 33 176.379 33Z" fill="#330000"/>
<path d="M151.921 74.3421H141.074L138.867 81.2623C138.836 81.3885 138.764 81.5002 138.661 81.5781C138.558 81.656 138.431 81.6952 138.303 81.6889H132.809C132.496 81.6889 132.386 81.5151 132.48 81.1673L141.872 53.8659C141.966 53.5817 142.06 53.2578 142.153 52.8944C142.277 52.2618 142.339 51.6193 142.341 50.9748C142.335 50.9298 142.339 50.8838 142.353 50.8406C142.368 50.7974 142.392 50.7581 142.423 50.7259C142.455 50.6937 142.494 50.6694 142.537 50.655C142.58 50.6406 142.625 50.6364 142.67 50.6428H150.137C150.355 50.6428 150.48 50.7219 150.512 50.8802L161.172 81.2148C161.266 81.5313 161.172 81.6893 160.89 81.6889H154.785C154.68 81.7005 154.575 81.6732 154.489 81.6122C154.402 81.5512 154.341 81.4606 154.316 81.3572L151.921 74.3421ZM142.764 68.37H150.184L150.078 68.0176L149.908 67.4595L149.787 67.0676L149.593 66.4504L149.182 65.1513L148.821 63.9996L147.882 60.9994C147.649 60.2537 147.424 59.5049 147.21 58.7533L147.038 58.1434L146.837 57.4222L146.531 56.3044L146.474 56.0938H146.427C146.192 57.2315 145.906 58.3578 145.569 59.4693L144.873 61.7314L144.489 62.9811L144.102 64.2463C144.032 64.4748 143.963 64.7008 143.893 64.9242L143.685 65.586L143.479 66.2324L143.273 66.8628L143.068 67.4774C143.001 67.6798 142.933 67.8795 142.865 68.0764L142.764 68.37ZM167.51 55.6671C167.032 55.6865 166.554 55.6036 166.109 55.4239C165.664 55.2442 165.261 54.9718 164.928 54.6244C164.595 54.2617 164.337 53.8364 164.168 53.3728C163.999 52.9091 163.922 52.4163 163.942 51.9226C163.925 51.4339 164.01 50.947 164.192 50.4937C164.374 50.0405 164.649 49.6311 164.998 49.2923C165.672 48.6392 166.57 48.2737 167.504 48.272L167.604 48.2731C168.731 48.2731 169.616 48.6127 170.258 49.2921C170.582 49.6451 170.833 50.0592 170.998 50.5106C171.164 50.962 171.239 51.4418 171.22 51.9226C171.24 52.4183 171.161 52.913 170.987 53.3772C170.814 53.8414 170.55 54.2656 170.211 54.6247C169.868 54.9652 169.462 55.2332 169.015 55.4128C168.569 55.5925 168.091 55.6802 167.611 55.6707L167.51 55.6671ZM164.27 81.2148V58.5585C164.27 58.274 164.395 58.1318 164.646 58.1318H170.422C170.672 58.1318 170.798 58.274 170.798 58.5585V81.2148C170.798 81.5313 170.672 81.6893 170.422 81.6889H164.693C164.426 81.6889 164.286 81.5471 164.272 81.2634L164.27 81.2148Z" fill="#FF9A00"/>
</g>
<g clip-path="url(#clip9_154_1723)">
<path d="M85.5938 32H48.4062C39.3453 32 32 39.3453 32 48.4062V85.5938C32 94.6547 39.3453 102 48.4062 102H85.5938C94.6547 102 102 94.6547 102 85.5938V48.4062C102 39.3453 94.6547 32 85.5938 32Z" fill="#F4F2ED"/>
<mask id="mask0_154_1723" style="mask-type:luminance" maskUnits="userSpaceOnUse" x="48" y="39" width="38" height="56">
<path d="M48.6797 39.6562H85.1453V94.3438H48.6797V39.6562Z" fill="white"/>
</mask>
<g mask="url(#mask0_154_1723)">
<path d="M57.7981 94.3438C62.8294 94.3438 66.9126 90.2605 66.9126 85.2293V76.1145H57.7981C52.7669 76.1145 48.6833 80.198 48.6833 85.2293C48.6833 90.2605 52.7669 94.3438 57.7981 94.3438Z" fill="#0ACF83"/>
<path d="M48.6833 67C48.6833 61.9687 52.7669 57.8855 57.7981 57.8855H66.9126V76.1145H57.7981C52.7669 76.1145 48.6833 72.0312 48.6833 67Z" fill="#A259FF"/>
<path d="M48.6832 48.7707C48.6832 43.7395 52.7667 39.6562 57.798 39.6562H66.9125V57.8855H57.798C52.7667 57.8855 48.6832 53.802 48.6832 48.7707Z" fill="#F24E1E"/>
<path d="M66.9126 39.6562H76.0271C81.0583 39.6562 85.1419 43.7395 85.1419 48.7707C85.1419 53.802 81.0583 57.8855 76.0271 57.8855H66.9126V39.6562Z" fill="#FF7262"/>
<path d="M85.1419 67C85.1419 72.0312 81.0583 76.1145 76.0271 76.1145C70.9958 76.1145 66.9126 72.0312 66.9126 67C66.9126 61.9687 70.9958 57.8855 76.0271 57.8855C81.0583 57.8855 85.1419 61.9687 85.1419 67Z" fill="#1ABCFE"/>
</g>
</g>
<defs>
<clipPath id="clip0_154_1723">
<rect width="70" height="70" fill="white" transform="translate(376 118)"/>
</clipPath>
<clipPath id="clip1_154_1723">
<rect width="70" height="70" fill="white" transform="translate(290 118)"/>
</clipPath>
<clipPath id="clip2_154_1723">
<rect width="70" height="70" fill="white" transform="translate(204 118)"/>
</clipPath>
<clipPath id="clip3_154_1723">
<rect width="70" height="70" fill="white" transform="translate(118 118)"/>
</clipPath>
<clipPath id="clip4_154_1723">
<rect width="70" height="70" fill="white" transform="translate(32 118)"/>
</clipPath>
<clipPath id="clip5_154_1723">
<rect width="49" height="70" fill="white" transform="translate(386.5 32)"/>
</clipPath>
<clipPath id="clip6_154_1723">
<rect width="49" height="70" fill="white" transform="translate(300.5 32)"/>
</clipPath>
<clipPath id="clip7_154_1723">
<rect width="70" height="69" fill="white" transform="translate(204 33)"/>
</clipPath>
<clipPath id="clip8_154_1723">
<rect width="70" height="69" fill="white" transform="translate(118 33)"/>
</clipPath>
<clipPath id="clip9_154_1723">
<rect width="70" height="70" fill="white" transform="translate(32 32)"/>
</clipPath>
</defs>
</svg>
