<svg width="18" height="18" viewBox="0 0 18 18" fill="none" xmlns="http://www.w3.org/2000/svg">
<path d="M16.75 12.6926L12.772 8.71383C13.1159 7.60157 13.1369 6.41455 12.8325 5.29084C12.5282 4.16713 11.911 3.15293 11.0529 2.36621C10.1947 1.57949 9.13084 1.05259 7.98497 0.846809C6.8391 0.641027 5.65835 0.764818 4.58008 1.20378L4.5809 1.6832L8.05813 5.16041L5.16112 8.05739L1.68388 4.58019H1.20364C0.764703 5.65857 0.641001 6.83943 0.84693 7.98536C1.05286 9.1313 1.57995 10.1952 2.36688 11.0533C3.15381 11.9114 4.16823 12.5284 5.2921 12.8325C6.41598 13.1367 7.60312 13.1154 8.71539 12.7713L12.6934 16.75M11.8238 11.8247L14.7209 14.7217" stroke="white" stroke-width="1.5" stroke-linecap="square"/>
</svg>
