<svg width="70" height="27" viewBox="0 0 70 27" fill="none" xmlns="http://www.w3.org/2000/svg">
<path d="M55.3267 14.3723C54.9891 15.6238 54.6516 16.8821 54.314 18.1471C53.9765 19.4122 53.6419 20.6705 53.3102 21.922C52.9726 23.1735 52.6351 24.4373 52.2975 25.7133H65.7599L68.7827 14.3723H55.3267ZM68.9562 5.38928C68.0878 3.7308 66.5557 2.41656 64.3598 1.44657C62.164 0.476576 59.1825 -0.00545239 55.4153 0.000482877C53.7304 -0.00867746 52.0474 0.112506 50.381 0.362958C48.9094 0.581917 47.4608 0.935257 46.0531 1.41859C44.796 1.84738 43.5822 2.39458 42.4277 3.05291C41.3745 3.65558 40.3839 4.36241 39.4706 5.16289C39.3862 5.23921 39.3018 5.31679 39.2174 5.39564C39.2352 5.43634 39.2529 5.47958 39.2693 5.52283C39.5896 6.32161 39.8057 7.15864 39.9124 8.01309C39.968 8.42852 40.0001 8.84678 40.0086 9.26586C40.0285 10.6211 39.858 11.9724 39.5023 13.2798C39.2688 14.1503 38.967 15.0009 38.5997 15.8235C38.2181 16.6795 37.7748 17.5062 37.2731 18.2972C37.1744 18.4524 37.0722 18.6067 36.9668 18.7602C36.3098 19.7302 35.5593 20.6329 34.7262 21.4552C34.9506 21.9112 35.2189 22.3441 35.5275 22.7474C36.1598 23.5652 36.9402 24.2556 37.8275 24.7824C38.8532 25.3799 39.9628 25.8185 41.1188 26.0834C42.5303 26.4067 43.975 26.5612 45.4227 26.5439C46.1645 26.5439 46.8151 26.5171 47.3645 26.4637C47.9139 26.4103 48.4962 26.3238 49.0949 26.2094C49.7793 24.9121 50.4738 23.5978 51.1785 22.2666C51.8832 20.9354 52.5806 19.6106 53.271 18.2921C53.9604 16.9762 54.6457 15.6696 55.3267 14.3723C54.9111 14.8611 54.3745 15.231 53.771 15.4445C53.1102 15.6988 52.2406 15.826 51.162 15.826C50.5708 15.8403 49.981 15.7618 49.4139 15.5933C49.011 15.4768 48.643 15.2618 48.343 14.9675C48.1092 14.7266 47.9481 14.4241 47.8784 14.095C47.8168 13.7606 47.8329 13.4163 47.9253 13.089C48.0656 12.5844 48.315 12.1172 48.6557 11.7205C49.0723 11.2495 49.5924 10.8824 50.1747 10.6484C50.8312 10.3635 51.6574 10.2214 52.6532 10.2223C53.7127 10.2223 54.5115 10.3953 55.0507 10.7463C55.3047 10.898 55.518 11.1095 55.6724 11.3625C55.8268 11.6156 55.9175 11.9026 55.9368 12.1987C55.9849 12.8126 55.7811 13.5376 55.3254 14.3736L69.9334 11.0108C70.1537 8.92246 69.8279 7.04861 68.9562 5.38928Z" fill="url(#paint0_linear_203_23)"/>
<path d="M37.9111 13.0483C37.4489 14.7401 36.7322 16.3511 35.7857 17.8253C35.692 17.9729 35.5971 18.1179 35.4958 18.2654C34.9352 19.0928 34.3028 19.8687 33.6059 20.584C33.497 20.6984 33.3831 20.8116 33.2692 20.9223C33.1552 21.0329 33.0451 21.1398 32.9312 21.2441C32.6443 21.5111 32.3489 21.7702 32.0451 22.0211C30.4425 23.3105 28.6325 24.3153 26.6931 24.9922C24.6563 25.726 22.3183 26.0987 19.7423 26.0987H0L6.13433 3.09866C6.37231 2.20753 6.6086 1.31978 6.84321 0.435425H26.8146C28.8918 0.435425 30.6906 0.671988 32.1628 1.13875C33.6135 1.60171 34.8097 2.24271 35.7161 3.04652C36.4043 3.65206 36.9774 4.3782 37.4072 5.18957C37.4781 5.32566 37.5452 5.46302 37.606 5.6042C37.6427 5.68305 37.6756 5.76191 37.7073 5.84203C37.7389 5.92216 37.7592 5.96921 37.7845 6.03917C38.0368 6.71093 38.2097 7.41015 38.2997 8.12245C38.3518 8.50531 38.3814 8.89092 38.3883 9.27728C38.4064 10.5506 38.2457 11.8201 37.9111 13.0483Z" fill="url(#paint1_linear_203_23)"/>
<path d="M23.8767 12.7545L27.8755 5.25061L21.1285 10.8467L18.0221 7.60098L11.051 20.6806L17.7993 15.0845L20.9044 18.3303L22.6475 15.0591L21.2892 16.3462L19.3386 14.3723L22.5032 11.3682L23.8767 12.7545ZM17.9487 13.0178L16.9626 12.027L18.2828 10.7742L19.2651 11.7663L17.9487 13.0178Z" fill="white"/>
<defs>
<linearGradient id="paint0_linear_203_23" x1="52.3631" y1="0" x2="52.3631" y2="26.5452" gradientUnits="userSpaceOnUse">
<stop stop-color="#006DE1"/>
<stop offset="1" stop-color="#4F20D2"/>
</linearGradient>
<linearGradient id="paint1_linear_203_23" x1="19.1948" y1="0.435425" x2="19.1948" y2="26.0987" gradientUnits="userSpaceOnUse">
<stop stop-color="#006DE1"/>
<stop offset="1" stop-color="#4F20D2"/>
</linearGradient>
</defs>
</svg>
